<svg class="main-svg" xmlns="http://www.w3.org/2000/svg" xmlns:xlink="http://www.w3.org/1999/xlink" width="400" height="500" style="" viewBox="0 0 400 500"><rect x="0" y="0" width="400" height="500" style="fill: rgb(255, 255, 255); fill-opacity: 1;"/><defs id="defs-187a44"><g class="clips"><clipPath id="clip187a44xyplot" class="plotclip"><rect width="326" height="431"/></clipPath><clipPath class="axesclip" id="clip187a44x"><rect x="64" y="0" width="326" height="500"/></clipPath><clipPath class="axesclip" id="clip187a44y"><rect x="0" y="10" width="400" height="431"/></clipPath><clipPath class="axesclip" id="clip187a44xy"><rect x="64" y="10" width="326" height="431"/></clipPath></g><g class="gradients"/><g class="patterns"/></defs><g class="bglayer"/><g class="layer-below"><g class="imagelayer"/><g class="shapelayer"/></g><g class="cartesianlayer"><g class="subplot xy"><g class="layer-subplot"><g class="shapelayer"/><g class="imagelayer"/></g><g class="minor-gridlayer"><g class="x"/><g class="y"/></g><g class="gridlayer"><g class="x"/><g class="y"/></g><g class="zerolinelayer"/><path class="xlines-below"/><path class="ylines-below"/><g class="overlines-below"/><g class="xaxislayer-below"/><g class="yaxislayer-below"/><g class="overaxes-below"/><g class="plot" transform="translate(64,10)" clip-path="url(#clip187a44xyplot)"><g class="scatterlayer mlayer"><g class="trace scatter trace0ec60c" style="stroke-miterlimit: 2; opacity: 1;"><g class="fills"/><g class="errorbars"/><g class="lines"><path class="js-line" d="M0,200.07L6.55,199.39L8.19,198.87L13.11,196.38L14.74,195.25L16.38,193.97L18.02,202.86L19.66,206.85L21.3,204.05L29.49,207.11L31.13,210.82L32.76,208.93L34.4,210.43L36.04,212.34L37.68,218.05L40.95,214.19L42.59,215.61L45.87,218.82L47.51,224.47L49.15,221.71L50.78,224.72L52.42,233.2L54.06,226.97L57.34,231.42L58.97,231.91L60.61,233.83L62.25,241.6L63.89,238.34L65.53,241.31L67.17,244.22L68.8,253.96L70.44,248.37L72.08,250.79L73.72,252.43L75.36,255.17L76.99,265.44L78.63,259.62L80.27,263.67L81.91,263.29L83.55,268.27L85.19,278.53L86.82,272.12L88.46,276.61L91.74,276.12L93.38,279.67L96.65,285.92L98.29,291.32L99.93,283.05L101.57,291.84L103.21,299.7L104.84,286.09L106.48,285.17L108.12,285.83L109.76,292.68L111.4,284.67L113.04,272.91L114.67,286.76L116.31,271.87L117.95,287.52L119.59,295.64L121.23,295.42L122.86,290.07L124.5,296.69L126.14,295.53L127.78,301.12L129.42,304.61L131.06,303.19L134.33,308.52L135.97,303.47L139.25,320.26L140.88,314.45L142.52,312.14L144.16,311.68L147.44,327.23L149.08,323.24L152.35,330.78L153.99,339.56L157.27,324.8L158.9,335.24L160.54,332.93L162.18,337.82L163.82,342.75L165.46,342.2L167.1,337.12L168.73,337.49L170.37,323.31L172.01,334.6L175.29,344.88L176.92,342.48L178.56,342.03L180.2,340.18L181.84,341.7L183.48,337.84L185.12,347.84L186.75,349.89L188.39,341.44L190.03,346.14L191.67,345.95L193.31,342.23L194.94,349.24L196.58,342L198.22,342.45L199.86,347.17L201.5,341.09L203.14,346.71L206.41,358.12L208.05,345.36L209.69,344.79L211.33,357.2L212.96,344.41L214.6,349.95L216.24,357.59L217.88,348.44L219.52,348.83L221.16,353.28L224.43,364.49L226.07,361.57L229.35,347.09L230.98,355.73L232.62,356.21L234.26,364.44L235.9,365.88L237.54,366.18L239.18,361.8L240.81,362.42L242.45,364.75L244.09,352.6L245.73,362.49L247.37,367.11L249.01,364.99L250.64,366.05L252.28,369.34L253.92,367.41L257.2,368.06L258.83,359.37L260.47,366.82L262.11,364.7L263.75,365.16L265.39,362.77L267.03,367.38L268.66,365.58L270.3,367.47L271.94,365.18L273.58,367.63L275.22,366.9L278.49,369.78L280.13,368.68L281.77,367.51L283.41,364.71L285.05,368.82L286.68,369.49L288.32,369.05L289.96,367.55L291.6,368.58L293.24,367.15L294.87,369.15L296.51,369.37L298.15,368.98L299.79,371.02L304.7,370.42L306.34,368.75L307.98,370.11L309.62,370.19L311.26,368.64L312.89,370.28L314.53,371.17L316.17,370.26L317.81,370.07L319.45,371.05L321.09,371.27L322.72,369.62L324.36,372.68L326,373.27" style="vector-effect: none; fill: none; stroke: rgb(102, 194, 165); stroke-opacity: 1; stroke-width: 2px; opacity: 1;"/></g><g class="points"/><g class="text"/></g><g class="trace scatter tracec67d95" style="stroke-miterlimit: 2; opacity: 1;"><g class="fills"/><g class="errorbars"/><g class="lines"><path class="js-line" d="M0,200.07L3.28,197.87L4.91,191.26L8.19,164.81L9.83,144.97L13.11,92.08L14.74,59.02L16.38,21.55L18.02,193.61L19.66,213.1L21.3,148.42L22.93,230.02L24.57,192.7L26.21,244.52L27.85,229.4L29.49,256.76L31.13,258.44L34.4,292.64L36.04,294.29L37.68,317.11L39.32,309.63L40.95,259.43L42.59,331.14L44.23,346.51L45.87,343.87L47.51,344.02L49.15,350.11L50.78,285.54L52.42,339.64L54.06,316.92L55.7,339.29L57.34,265.62L58.97,334.77L60.61,321.63L62.25,325.98L63.89,330.11L65.53,317.92L67.17,351.43L68.8,325.91L70.44,354.19L72.08,301.54L73.72,356.21L75.36,318.55L76.99,355.81L78.63,353.32L80.27,311.37L81.91,360.84L83.55,318.21L85.19,360.01L86.82,366.98L88.46,350.47L90.1,376.29L91.74,371.05L93.38,370.92L95.02,306.49L96.65,369.93L98.29,364.1L99.93,347.26L101.57,367.5L103.21,375.44L104.84,373.75L108.12,366.89L109.76,364.63L111.4,364.01L113.04,373.92L114.67,361.73L116.31,374.38L117.95,363.12L119.59,375.03L121.23,374.29L122.86,371.48L124.5,369.75L126.14,376.14L127.78,371.98L129.42,380.82L131.06,376.67L132.69,370.41L134.33,377.52L135.97,370.11L137.61,377.74L139.25,364.3L140.88,378.89L142.52,379.58L144.16,370.75L145.8,378.74L147.44,383.04L149.08,383.2L150.71,383.43L152.35,381.6L153.99,370.83L155.63,380.54L158.9,382.92L160.54,383.38L162.18,385.37L163.82,383.02L165.46,382.69L167.1,387.14L168.73,386.23L170.37,383.67L172.01,388.15L173.65,387.64L175.29,383.53L176.92,387.52L178.56,386.04L180.2,383.27L181.84,383.23L183.48,386.22L185.12,382.16L186.75,386.35L188.39,389.83L190.03,390.37L193.31,382.48L194.94,387.19L196.58,391.63L198.22,392.71L201.5,386.54L203.14,389.18L204.77,392.89L206.41,393.61L208.05,392.22L209.69,388.78L211.33,393.95L212.96,392.77L214.6,395.37L216.24,395.04L219.52,395.99L221.16,393.58L224.43,394.49L226.07,394.96L227.71,395.79L229.35,399.61L230.98,400.86L232.62,395.01L234.26,397.29L235.9,394.74L237.54,395.31L239.18,397.53L240.81,394.84L242.45,397.56L244.09,398.16L245.73,396.1L247.37,401.09L249.01,401.09L250.64,397.6L252.28,401.38L253.92,399.16L255.56,399L257.2,403.16L258.83,402.46L260.47,399.44L262.11,402.37L263.75,401.98L265.39,402.58L267.03,398.53L268.66,403.22L270.3,397.97L271.94,399.99L273.58,402.97L275.22,403.28L276.85,396.74L278.49,399.93L281.77,405.06L283.41,402.37L285.05,404.81L286.68,403.99L288.32,404.68L289.96,404.34L291.6,401.45L293.24,405.07L294.87,404.26L296.51,405.18L298.15,400.83L299.79,402.57L301.43,405.41L303.07,406.68L304.7,404.69L306.34,405.04L307.98,403.79L309.62,405.92L311.26,404.25L312.89,405.97L314.53,403.75L316.17,406.06L317.81,404L319.45,406.15L321.09,403.49L322.72,406.24L324.36,403.58L326,406.29" style="vector-effect: none; fill: none; stroke: rgb(252, 141, 98); stroke-opacity: 1; stroke-width: 2px; opacity: 1;"/></g><g class="points"/><g class="text"/></g><g class="trace scatter tracebef804" style="stroke-miterlimit: 2; opacity: 1;"><g class="fills"/><g class="errorbars"/><g class="lines"><path class="js-line" d="M0,200.07L1.64,224.14L3.28,267.88L6.55,406.85L8.19,409.45" style="vector-effect: none; fill: none; stroke: rgb(141, 160, 203); stroke-opacity: 1; stroke-width: 2px; opacity: 1;"/></g><g class="points"/><g class="text"/></g></g></g><g class="overplot"/><path class="xlines-above crisp" d="M63,441.5H390" style="fill: none; stroke-width: 1px; stroke: rgb(36, 36, 36); stroke-opacity: 1;"/><path class="ylines-above crisp" d="M63.5,10V441" style="fill: none; stroke-width: 1px; stroke: rgb(36, 36, 36); stroke-opacity: 1;"/><g class="overlines-above"/><g class="xaxislayer-above"><path class="xtick ticks crisp" d="M0,442v5" transform="translate(64,0)" style="stroke: rgb(68, 68, 68); stroke-opacity: 1; stroke-width: 1px;"/><path class="xtick ticks crisp" d="M0,442v5" transform="translate(145.91,0)" style="stroke: rgb(68, 68, 68); stroke-opacity: 1; stroke-width: 1px;"/><path class="xtick ticks crisp" d="M0,442v5" transform="translate(227.82,0)" style="stroke: rgb(68, 68, 68); stroke-opacity: 1; stroke-width: 1px;"/><path class="xtick ticks crisp" d="M0,442v5" transform="translate(309.73,0)" style="stroke: rgb(68, 68, 68); stroke-opacity: 1; stroke-width: 1px;"/><g class="xtick"><text text-anchor="middle" x="0" y="461.4" transform="translate(64,0)" style="font-family: 'Open Sans', verdana, arial, sans-serif; font-size: 12px; fill: rgb(36, 36, 36); fill-opacity: 1; white-space: pre; opacity: 1;">0</text></g><g class="xtick"><text text-anchor="middle" x="0" y="461.4" style="font-family: 'Open Sans', verdana, arial, sans-serif; font-size: 12px; fill: rgb(36, 36, 36); fill-opacity: 1; white-space: pre; opacity: 1;" transform="translate(145.91,0)">50</text></g><g class="xtick"><text text-anchor="middle" x="0" y="461.4" style="font-family: 'Open Sans', verdana, arial, sans-serif; font-size: 12px; fill: rgb(36, 36, 36); fill-opacity: 1; white-space: pre; opacity: 1;" transform="translate(227.82,0)">100</text></g><g class="xtick"><text text-anchor="middle" x="0" y="461.4" style="font-family: 'Open Sans', verdana, arial, sans-serif; font-size: 12px; fill: rgb(36, 36, 36); fill-opacity: 1; white-space: pre; opacity: 1;" transform="translate(309.73,0)">150</text></g></g><g class="yaxislayer-above"><path class="ytick ticks crisp" d="M63,0h-5" transform="translate(0,419.45)" style="stroke: rgb(68, 68, 68); stroke-opacity: 1; stroke-width: 1px;"/><path class="ytick ticks crisp" d="M63,0h-5" transform="translate(0,345.98)" style="stroke: rgb(68, 68, 68); stroke-opacity: 1; stroke-width: 1px;"/><path class="ytick ticks crisp" d="M63,0h-5" transform="translate(0,272.52)" style="stroke: rgb(68, 68, 68); stroke-opacity: 1; stroke-width: 1px;"/><path class="ytick ticks crisp" d="M63,0h-5" transform="translate(0,199.05)" style="stroke: rgb(68, 68, 68); stroke-opacity: 1; stroke-width: 1px;"/><path class="ytick ticks crisp" d="M63,0h-5" transform="translate(0,125.59)" style="stroke: rgb(68, 68, 68); stroke-opacity: 1; stroke-width: 1px;"/><path class="ytick ticks crisp" d="M63,0h-5" transform="translate(0,52.12)" style="stroke: rgb(68, 68, 68); stroke-opacity: 1; stroke-width: 1px;"/><g class="ytick"><text text-anchor="end" x="55.6" y="4.199999999999999" transform="translate(0,419.45)" style="font-family: 'Open Sans', verdana, arial, sans-serif; font-size: 12px; fill: rgb(36, 36, 36); fill-opacity: 1; white-space: pre; opacity: 1;">0</text></g><g class="ytick"><text text-anchor="end" x="55.6" y="4.199999999999999" style="font-family: 'Open Sans', verdana, arial, sans-serif; font-size: 12px; fill: rgb(36, 36, 36); fill-opacity: 1; white-space: pre; opacity: 1;" transform="translate(0,345.98)">100</text></g><g class="ytick"><text text-anchor="end" x="55.6" y="4.199999999999999" style="font-family: 'Open Sans', verdana, arial, sans-serif; font-size: 12px; fill: rgb(36, 36, 36); fill-opacity: 1; white-space: pre; opacity: 1;" transform="translate(0,272.52)">200</text></g><g class="ytick"><text text-anchor="end" x="55.6" y="4.199999999999999" style="font-family: 'Open Sans', verdana, arial, sans-serif; font-size: 12px; fill: rgb(36, 36, 36); fill-opacity: 1; white-space: pre; opacity: 1;" transform="translate(0,199.05)">300</text></g><g class="ytick"><text text-anchor="end" x="55.6" y="4.199999999999999" style="font-family: 'Open Sans', verdana, arial, sans-serif; font-size: 12px; fill: rgb(36, 36, 36); fill-opacity: 1; white-space: pre; opacity: 1;" transform="translate(0,125.59)">400</text></g><g class="ytick"><text text-anchor="end" x="55.6" y="4.199999999999999" style="font-family: 'Open Sans', verdana, arial, sans-serif; font-size: 12px; fill: rgb(36, 36, 36); fill-opacity: 1; white-space: pre; opacity: 1;" transform="translate(0,52.12)">500</text></g></g><g class="overaxes-above"/></g></g><g class="polarlayer"/><g class="smithlayer"/><g class="ternarylayer"/><g class="geolayer"/><g class="funnelarealayer"/><g class="pielayer"/><g class="iciclelayer"/><g class="treemaplayer"/><g class="sunburstlayer"/><g class="glimages"/><defs id="topdefs-187a44"><g class="clips"/><clipPath id="legend187a44"><rect width="148" height="67" x="0" y="0"/></clipPath></defs><g class="layer-above"><g class="imagelayer"/><g class="shapelayer"/></g><g class="infolayer"><g class="legend" pointer-events="all" transform="translate(225.7,31.55000000000002)"><rect class="bg" shape-rendering="crispEdges" style="stroke: rgb(68, 68, 68); stroke-opacity: 1; fill: rgb(255, 255, 255); fill-opacity: 1; stroke-width: 0px;" width="148" height="67" x="0" y="0"/><g class="scrollbox" transform="" clip-path="url(#legend187a44)"><g class="groups"><g class="traces" transform="translate(0,14.5)" style="opacity: 1;"><text class="legendtext" text-anchor="start" x="40" y="4.680000000000001" style="font-family: 'Open Sans', verdana, arial, sans-serif; font-size: 12px; fill: rgb(36, 36, 36); fill-opacity: 1; white-space: pre;">scipy_neldermead</text><g class="layers" style="opacity: 1;"><g class="legendfill"/><g class="legendlines"><path class="js-line" d="M5,0h30" style="fill: none; stroke: rgb(102, 194, 165); stroke-opacity: 1; stroke-width: 2px;"/></g><g class="legendsymbols"><g class="legendpoints"/></g></g><rect class="legendtoggle" x="0" y="-9.5" width="142.65625" height="19" style="fill: rgb(0, 0, 0); fill-opacity: 0;"/></g><g class="traces" transform="translate(0,33.5)" style="opacity: 1;"><text class="legendtext" text-anchor="start" x="40" y="4.680000000000001" style="font-family: 'Open Sans', verdana, arial, sans-serif; font-size: 12px; fill: rgb(36, 36, 36); fill-opacity: 1; white-space: pre;">nlopt_neldermead</text><g class="layers" style="opacity: 1;"><g class="legendfill"/><g class="legendlines"><path class="js-line" d="M5,0h30" style="fill: none; stroke: rgb(252, 141, 98); stroke-opacity: 1; stroke-width: 2px;"/></g><g class="legendsymbols"><g class="legendpoints"/></g></g><rect class="legendtoggle" x="0" y="-9.5" width="142.65625" height="19" style="fill: rgb(0, 0, 0); fill-opacity: 0;"/></g><g class="traces" transform="translate(0,52.5)" style="opacity: 1;"><text class="legendtext" text-anchor="start" x="40" y="4.680000000000001" style="font-family: 'Open Sans', verdana, arial, sans-serif; font-size: 12px; fill: rgb(36, 36, 36); fill-opacity: 1; white-space: pre;">fides</text><g class="layers" style="opacity: 1;"><g class="legendfill"/><g class="legendlines"><path class="js-line" d="M5,0h30" style="fill: none; stroke: rgb(141, 160, 203); stroke-opacity: 1; stroke-width: 2px;"/></g><g class="legendsymbols"><g class="legendpoints"/></g></g><rect class="legendtoggle" x="0" y="-9.5" width="142.65625" height="19" style="fill: rgb(0, 0, 0); fill-opacity: 0;"/></g></g></g><rect class="scrollbar" rx="20" ry="3" width="0" height="0" style="fill: rgb(128, 139, 164); fill-opacity: 1;" x="0" y="0"/></g><g class="g-gtitle"/><g class="g-xtitle"><text class="xtitle" x="227" y="489.70625" text-anchor="middle" style="font-family: 'Open Sans', verdana, arial, sans-serif; font-size: 14px; fill: rgb(36, 36, 36); opacity: 1; font-weight: normal; white-space: pre;">No. of criterion evaluations</text></g><g class="g-ytitle" transform="translate(4.2841796875,0)"><text class="ytitle" transform="rotate(-90,10.715625000000003,225.5)" x="10.715625000000003" y="225.5" text-anchor="middle" style="font-family: 'Open Sans', verdana, arial, sans-serif; font-size: 14px; fill: rgb(36, 36, 36); opacity: 1; font-weight: normal; white-space: pre;">Criterion value</text></g></g></svg>
